<svg width="21" height="21" viewBox="0 0 21 21" fill="none" xmlns="http://www.w3.org/2000/svg">
<path d="M0.5 13.3636C0.5 12.5854 1.13087 11.9545 1.90909 11.9545H19.0909C19.8691 11.9545 20.5 12.5854 20.5 13.3636V19.0909C20.5 19.8691 19.8691 20.5 19.0909 20.5H1.90909C1.13087 20.5 0.5 19.8691 0.5 19.0909V13.3636ZM0.5 1.90909C0.5 1.13087 1.13087 0.5 1.90909 0.5H19.0909C19.8691 0.5 20.5 1.13087 20.5 1.90909V7.63636C20.5 8.41458 19.8691 9.04545 19.0909 9.04545H1.90909C1.13087 9.04545 0.5 8.41458 0.5 7.63636V1.90909Z" stroke="#4C4C4C"/>
</svg>