<svg width="21" height="21" viewBox="0 0 21 21" fill="none" xmlns="http://www.w3.org/2000/svg">
<path d="M0.5 1.90909C0.5 1.13087 1.13087 0.5 1.90909 0.5H7.63636C8.41458 0.5 9.04545 1.13087 9.04545 1.90909V7.63636C9.04545 8.41458 8.41458 9.04545 7.63636 9.04545H1.90909C1.13087 9.04545 0.5 8.41458 0.5 7.63636V1.90909ZM11.9545 1.90909C11.9545 1.13087 12.5854 0.5 13.3636 0.5H19.0909C19.8691 0.5 20.5 1.13087 20.5 1.90909V7.63636C20.5 8.41458 19.8691 9.04545 19.0909 9.04545H13.3636C12.5854 9.04545 11.9545 8.41458 11.9545 7.63636V1.90909ZM0.5 13.3636C0.5 12.5854 1.13087 11.9545 1.90909 11.9545H7.63636C8.41458 11.9545 9.04545 12.5854 9.04545 13.3636V19.0909C9.04545 19.8691 8.41458 20.5 7.63636 20.5H1.90909C1.13087 20.5 0.5 19.8691 0.5 19.0909V13.3636ZM11.9545 13.3636C11.9545 12.5854 12.5854 11.9545 13.3636 11.9545H19.0909C19.8691 11.9545 20.5 12.5854 20.5 13.3636V19.0909C20.5 19.8691 19.8691 20.5 19.0909 20.5H13.3636C12.5854 20.5 11.9545 19.8691 11.9545 19.0909V13.3636Z" stroke="#4C4C4C"/>
</svg>